<?xml version="1.0" encoding="iso-8859-1"?>
<!-- Generator: Adobe Illustrator 19.0.0, SVG Export Plug-In . SVG Version: 6.00 Build 0)  -->
<svg version="1.1" id="Layer_1" xmlns="http://www.w3.org/2000/svg" xmlns:xlink="http://www.w3.org/1999/xlink" x="0px" y="0px"
	 viewBox="0 0 511.99 511.99" style="enable-background:new 0 0 511.99 511.99;" xml:space="preserve">
<g>
	
		<rect x="438.12" y="99.28" transform="matrix(-0.7071 -0.7071 0.7071 -0.7071 722.1767 539.2872)" style="fill:#FFDB2D;" width="69.316" height="41.591"/>
	
		<rect x="393.174" y="144.238" transform="matrix(-0.7071 0.7071 -0.7071 -0.7071 833.1898 12.6744)" style="fill:#FFDB2D;" width="41.591" height="69.317"/>
	
		<rect x="148.386" y="127.506" transform="matrix(-0.7071 0.7071 -0.7071 -0.7071 692.3821 51.4005)" style="fill:#FFDB2D;" width="374.32" height="83.182"/>
</g>
<rect x="163.078" y="163.011" transform="matrix(-0.7071 0.7071 -0.7071 -0.7071 727.8645 66.1222)" style="fill:#FFAF33;" width="374.32" height="41.591"/>
<path style="fill:#FFEA8A;" d="M36.545,291.64c-48.727,48.726-48.726,127.733,0,176.458c48.727,48.727,127.729,48.726,176.458,0
	c48.726-48.727,48.727-127.73,0-176.458C164.275,242.914,85.272,242.914,36.545,291.64z M154.184,409.282
	c-16.243,16.241-42.577,16.241-58.82-0.004c-16.241-16.241-16.241-42.573,0.001-58.817c16.242-16.241,42.576-16.241,58.819-0.001
	C170.425,366.7,170.427,393.038,154.184,409.282z"/>
<path style="fill:#FFDB2D;" d="M154.184,409.282c-16.243,16.241-42.577,16.24-58.819-0.003l-58.82,58.82
	c48.727,48.727,127.729,48.726,176.458,0c48.726-48.727,48.727-127.73,0-176.458l-58.819,58.82
	C170.425,366.702,170.425,393.038,154.184,409.282z"/>
<g>
</g>
<g>
</g>
<g>
</g>
<g>
</g>
<g>
</g>
<g>
</g>
<g>
</g>
<g>
</g>
<g>
</g>
<g>
</g>
<g>
</g>
<g>
</g>
<g>
</g>
<g>
</g>
<g>
</g>
</svg>
